<svg width="140" height="37" viewBox="0 0 140 37" fill="none" xmlns="http://www.w3.org/2000/svg">
<path fill-rule="evenodd" clip-rule="evenodd" d="M7.53106 36.732C5.74659 36.732 4.29482 36.3841 3.17575 35.6884C2.05667 35.0206 1.24005 34.0884 0.725885 32.8918C0.241962 31.6952 0 30.3317 0 28.8012C0 27.382 0.211717 25.7819 0.63515 24.001C1.08883 22.2201 1.7391 20.4252 2.58597 18.6164C3.46308 16.7798 4.50654 15.0963 5.71635 13.5658C6.9564 12.0353 8.3628 10.797 9.93555 9.85084C11.5083 8.90472 13.2323 8.43165 15.1075 8.43165C16.1963 8.43165 17.0432 8.66819 17.6481 9.14125C18.2832 9.58648 18.7369 10.1848 19.0091 10.9361C19.2813 11.6874 19.4174 12.4944 19.4174 13.3571C19.4174 14.1919 19.2813 15.1798 19.0091 16.3207C18.7369 17.4338 18.3588 18.519 17.8749 19.5765C17.391 20.6061 16.8012 21.427 16.1056 22.0392C16.0451 22.067 15.9695 22.1087 15.8787 22.1644C15.8182 22.2201 15.7426 22.2479 15.6519 22.2479C15.5007 22.2479 15.4251 22.1644 15.4251 21.9974C15.4251 21.7748 15.5309 21.5661 15.7426 21.3713C16.6197 20.3695 17.2549 19.2843 17.6481 18.1155C18.0413 16.9468 18.2379 15.7224 18.2379 14.4423C18.2379 13.858 18.1623 13.204 18.011 12.4805C17.8598 11.757 17.5725 11.1309 17.149 10.6022C16.7256 10.0735 16.0905 9.8091 15.2436 9.8091C13.4894 9.8091 11.8712 10.2683 10.3892 11.1866C8.93746 12.1048 7.63692 13.3153 6.4876 14.818C5.33828 16.3207 4.37043 17.9486 3.58406 19.7017C2.82793 21.4548 2.23815 23.1801 1.81471 24.8776C1.42153 26.575 1.22493 28.0777 1.22493 29.3856C1.22493 30.5265 1.39128 31.5839 1.72398 32.5579C2.05667 33.5318 2.63133 34.311 3.44796 34.8954C4.26458 35.5076 5.36853 35.8137 6.75981 35.8137C8.54428 35.8137 10.2531 35.4658 11.8864 34.7701C13.5499 34.1023 15.1075 33.1979 16.5593 32.057C18.0413 30.9161 19.4174 29.6499 20.6877 28.2586C21.958 26.8672 23.1073 25.4619 24.1357 24.0427C25.1943 22.5957 26.1167 21.2322 26.9031 19.9521C26.2075 20.0634 25.5118 20.1887 24.8162 20.3278C24.1206 20.4669 23.4249 20.6478 22.7293 20.8704C22.6083 20.8983 22.4873 20.9539 22.3663 21.0374C22.2454 21.1209 22.1093 21.1626 21.958 21.1626C21.6556 21.1626 21.4741 21.093 21.4136 20.9539C21.3531 20.7869 21.3229 20.5643 21.3229 20.2861C21.3229 19.7573 21.58 19.3538 22.0941 19.0756C22.6385 18.7973 23.2737 18.6025 23.9996 18.4912C24.7557 18.3799 25.4967 18.3103 26.2226 18.2825C26.9787 18.2547 27.5534 18.2268 27.9466 18.199L31.3038 12.7727C32.4229 10.9639 33.4815 9.12734 34.4796 7.26291C34.8727 6.5394 35.2206 5.80198 35.523 5.05064C35.8557 4.29931 36.2035 3.56189 36.5665 2.83838C36.627 2.69924 36.7177 2.56011 36.8387 2.42097C36.9597 2.25401 37.126 2.15661 37.3377 2.12878C37.4587 2.18444 37.5192 2.25401 37.5192 2.33749C37.5192 2.64359 37.3377 3.20013 36.9748 4.00712C36.6421 4.78629 36.2035 5.7185 35.6591 6.80376C35.1147 7.8612 34.5098 8.97429 33.8444 10.143C33.179 11.3118 32.5287 12.4388 31.8936 13.524C31.2887 14.6093 30.7443 15.5693 30.2603 16.4042C29.7764 17.2111 29.4286 17.7955 29.2169 18.1573L32.937 17.9903C34.2073 17.9347 35.4625 17.8929 36.7026 17.8651C36.9445 15.4998 37.2772 13.051 37.7007 10.5187C38.1241 7.95859 38.3358 5.50979 38.3358 3.17231C38.3358 2.81055 38.2904 2.46271 38.1997 2.12878C38.1392 1.76703 38.109 1.41919 38.109 1.08526C38.109 0.695682 38.2753 0.417409 38.608 0.250444C38.9407 0.0834815 39.2734 0 39.6061 0C40.5135 0 40.9672 0.375668 40.9672 1.127C40.9672 1.98965 40.8462 2.88012 40.6042 3.79842C40.3622 4.71672 40.1656 5.6211 40.0144 6.51157C39.6817 8.376 39.3339 10.2543 38.971 12.1466C38.6383 14.0388 38.3358 15.9311 38.0636 17.8233C38.729 17.7677 39.3944 17.726 40.0598 17.6981C40.7252 17.6425 41.3755 17.6146 42.0106 17.6146C42.1316 17.6146 42.2677 17.6286 42.4189 17.6564C42.5701 17.6842 42.6458 17.7677 42.6458 17.9068C42.6458 18.0738 42.434 18.2129 42.0106 18.3242C41.6174 18.4355 41.1335 18.519 40.5588 18.5747C39.9842 18.6025 39.4398 18.6303 38.9256 18.6582C38.4417 18.686 38.109 18.6999 37.9275 18.6999C37.7763 19.98 37.6251 21.2739 37.4738 22.5818C37.3528 23.8897 37.2924 25.1976 37.2924 26.5054C37.2924 27.0342 37.3226 27.6742 37.3831 28.4255C37.4738 29.1769 37.6855 29.8447 38.0182 30.4291C38.3812 31.0135 38.971 31.3056 39.7876 31.3056C40.3925 31.3056 40.9218 31.0969 41.3755 30.6795C41.8291 30.2621 42.2072 29.8586 42.5097 29.469C42.8121 29.0516 43.0238 28.8429 43.1448 28.8429C43.2658 28.8429 43.3263 28.9125 43.3263 29.0516C43.3263 29.3856 43.0843 29.8169 42.6004 30.3456C42.1467 30.8465 41.6174 31.3056 41.0125 31.7231C40.4379 32.1405 39.9539 32.3492 39.5607 32.3492C38.7441 32.3492 38.109 32.1405 37.6553 31.7231C37.2016 31.3056 36.8689 30.7769 36.6572 30.1369C36.4455 29.4969 36.3094 28.8429 36.2489 28.1751C36.1884 27.4794 36.1582 26.8672 36.1582 26.3385C36.1582 25.0863 36.2035 23.834 36.2943 22.5818C36.385 21.3018 36.4909 20.0356 36.6118 18.7834C35.2206 18.8947 33.8142 19.0477 32.3926 19.2425C31.0014 19.4095 29.5949 19.5904 28.1734 19.7852L26.8578 22.0392C26.1924 23.1523 25.3455 24.3767 24.3172 25.7124C23.2888 27.0202 22.1244 28.3281 20.8238 29.636C19.5233 30.9161 18.132 32.0848 16.65 33.1422C15.168 34.2275 13.6557 35.0901 12.1132 35.7302C10.5707 36.398 9.04332 36.732 7.53106 36.732ZM52.3954 20.1515C52.2514 19.9835 52.1794 19.7915 52.1794 19.5755V7.51547C52.1794 6.89147 52.3354 6.45947 52.6474 6.21947C52.9834 5.95547 53.4274 5.82347 53.9794 5.82347H57.6154C58.8154 5.82347 59.8594 6.18347 60.7474 6.90347C61.6354 7.59947 62.0794 8.58347 62.0794 9.85547C62.0794 10.9355 61.7914 11.8475 61.2154 12.5915C60.6634 13.3115 59.9674 13.7795 59.1274 13.9955C59.4874 14.0915 59.8594 14.3555 60.2434 14.7875C60.6274 15.1955 60.9514 15.7235 61.2154 16.3715L62.3674 19.2155C62.4154 19.3595 62.4394 19.4795 62.4394 19.5755C62.4394 19.8155 62.3554 20.0075 62.1874 20.1515C62.0434 20.3195 61.8514 20.4035 61.6114 20.4035C61.2514 20.4035 60.9874 20.2115 60.8194 19.8275L59.4874 16.6235C59.1754 15.8315 58.6834 15.2435 58.0114 14.8595C57.3394 14.4755 56.6554 14.2835 55.9594 14.2835H55.0594C54.2194 14.2835 53.7994 14.7035 53.7994 15.5435L53.8714 19.5755C53.8714 19.7915 53.7874 19.9835 53.6194 20.1515C53.4514 20.3195 53.2354 20.4035 52.9714 20.4035C52.7314 20.4035 52.5394 20.3195 52.3954 20.1515ZM55.0594 12.8075H57.3274C58.0954 12.8075 58.7914 12.5795 59.4154 12.1235C60.0634 11.6675 60.3874 10.9955 60.3874 10.1075C60.3874 9.12347 60.0754 8.41547 59.4514 7.98347C58.8514 7.55147 58.1674 7.33547 57.3994 7.33547H55.0594C54.2194 7.33547 53.7994 7.75547 53.7994 8.59547V11.5475C53.7994 12.3875 54.2194 12.8075 55.0594 12.8075ZM73.036 20.0435C72.508 20.0435 72.076 19.8995 71.74 19.6115C71.428 19.3235 71.272 18.8915 71.272 18.3155V7.40747C71.272 6.95147 71.416 6.57947 71.704 6.29147C72.016 5.97947 72.4 5.82347 72.856 5.82347H78.796C79.06 5.82347 79.252 5.90747 79.372 6.07547C79.492 6.24347 79.552 6.43547 79.552 6.65147C79.552 6.84347 79.48 7.01147 79.336 7.15547C79.192 7.29947 79.012 7.37147 78.796 7.37147H74.26C73.42 7.37147 73 7.79147 73 8.63147V10.8275C73 11.6675 73.42 12.0875 74.26 12.0875H78.292C78.796 12.0875 79.048 12.3395 79.048 12.8435C79.048 13.2995 78.796 13.5275 78.292 13.5275H74.26C73.42 13.5275 73 13.9475 73 14.7875V17.2355C73 18.0755 73.42 18.4955 74.26 18.4955H78.976C79.264 18.4955 79.456 18.5795 79.552 18.7475C79.672 18.9155 79.732 19.0955 79.732 19.2875C79.732 19.4555 79.672 19.6235 79.552 19.7915C79.432 19.9595 79.24 20.0435 78.976 20.0435H73.036ZM89.0715 20.4035C88.8315 20.4035 88.6155 20.3195 88.4235 20.1515C88.2555 20.0075 88.1835 19.7795 88.2075 19.4675L89.8275 6.65147C89.8755 6.31547 90.0315 6.06347 90.2955 5.89547C90.5835 5.72747 90.8955 5.64347 91.2315 5.64347C91.5195 5.64347 91.7835 5.71547 92.0235 5.85947C92.2875 5.97947 92.4675 6.18347 92.5635 6.47147L95.7315 14.8235C95.8755 15.1355 96.0195 15.2915 96.1635 15.2915C96.2835 15.2915 96.4155 15.1355 96.5595 14.8235L99.6915 6.47147C99.8115 6.18347 99.9915 5.97947 100.232 5.85947C100.472 5.71547 100.736 5.64347 101.024 5.64347C101.384 5.64347 101.696 5.72747 101.96 5.89547C102.248 6.06347 102.404 6.31547 102.428 6.65147L104.048 19.4675C104.096 19.7795 104.024 20.0075 103.832 20.1515C103.64 20.3195 103.424 20.4035 103.184 20.4035C102.992 20.4035 102.812 20.3315 102.644 20.1875C102.476 20.0675 102.368 19.8875 102.32 19.6475L101.096 8.73947C101.048 8.54747 100.976 8.45147 100.88 8.45147C100.784 8.45147 100.688 8.53547 100.592 8.70347L97.2435 17.3795C96.9795 17.9315 96.6075 18.2075 96.1275 18.2075C95.6715 18.2075 95.3115 17.9315 95.0475 17.3795L91.6635 8.70347C91.5915 8.53547 91.4955 8.45147 91.3755 8.45147C91.2795 8.45147 91.2075 8.54747 91.1595 8.73947L89.9355 19.6475C89.9115 19.8875 89.8035 20.0675 89.6115 20.1875C89.4435 20.3315 89.2635 20.4035 89.0715 20.4035ZM50.6782 35.7426C51.3369 36.0199 52.0822 36.1586 52.9142 36.1586C53.9889 36.1586 54.8815 35.8986 55.5922 35.3786C56.3202 34.8412 56.6842 34.0959 56.6842 33.1426C56.6842 32.3972 56.4849 31.8252 56.0862 31.4266C55.7049 31.0106 55.2369 30.7072 54.6822 30.5166C54.1275 30.3086 53.6162 30.1439 53.1482 30.0226C52.6455 29.8839 52.1775 29.7539 51.7442 29.6326C51.3282 29.4939 50.9989 29.3206 50.7562 29.1126C50.5135 28.8872 50.3922 28.5752 50.3922 28.1766C50.3922 27.5872 50.6175 27.1452 51.0682 26.8506C51.5362 26.5559 52.1515 26.4086 52.9142 26.4086C53.5209 26.4086 54.0149 26.4952 54.3962 26.6686C54.7775 26.8419 55.0635 27.0066 55.2542 27.1626C55.4102 27.2839 55.5575 27.3446 55.6962 27.3446C55.8349 27.3446 55.9562 27.2839 56.0602 27.1626C56.1642 27.0239 56.2162 26.8939 56.2162 26.7726C56.2162 26.6166 56.1469 26.4779 56.0082 26.3566C55.6789 26.0619 55.2715 25.8279 54.7862 25.6546C54.3182 25.4639 53.7289 25.3686 53.0182 25.3686C51.8569 25.3686 50.9382 25.6286 50.2622 26.1486C49.5862 26.6512 49.2482 27.3359 49.2482 28.2026C49.2482 28.8266 49.4302 29.3292 49.7942 29.7106C50.1582 30.0746 50.6175 30.3606 51.1722 30.5686C51.7442 30.7592 52.3249 30.9239 52.9142 31.0626C53.3129 31.1492 53.7115 31.2706 54.1102 31.4266C54.5089 31.5652 54.8469 31.7732 55.1242 32.0506C55.4015 32.3106 55.5402 32.6659 55.5402 33.1166C55.5402 33.6886 55.3149 34.1652 54.8642 34.5466C54.4135 34.9279 53.8069 35.1186 53.0442 35.1186C52.4202 35.1186 51.8395 34.9972 51.3022 34.7546C50.7822 34.5119 50.3749 34.2259 50.0802 33.8966C49.9415 33.7579 49.7942 33.6886 49.6382 33.6886C49.4822 33.6886 49.3349 33.7492 49.1962 33.8706C49.0749 33.9746 49.0142 34.1132 49.0142 34.2866C49.0142 34.4079 49.0662 34.5379 49.1702 34.6766C49.5169 35.0926 50.0195 35.4479 50.6782 35.7426ZM63.2521 35.5866C63.4947 35.7946 63.8067 35.8986 64.1881 35.8986H68.4781C68.6687 35.8986 68.8074 35.8379 68.8941 35.7166C68.9807 35.5952 69.0241 35.4739 69.0241 35.3526C69.0241 35.2139 68.9807 35.0839 68.8941 34.9626C68.8247 34.8412 68.6861 34.7806 68.4781 34.7806H65.0721C64.4654 34.7806 64.1621 34.4772 64.1621 33.8706V32.1026C64.1621 31.4959 64.4654 31.1926 65.0721 31.1926H67.9841C68.3481 31.1926 68.5301 31.0279 68.5301 30.6986C68.5301 30.3346 68.3481 30.1526 67.9841 30.1526H65.0721C64.4654 30.1526 64.1621 29.8492 64.1621 29.2426V27.6566C64.1621 27.0499 64.4654 26.7466 65.0721 26.7466H68.3481C68.5041 26.7466 68.6341 26.6946 68.7381 26.5906C68.8421 26.4866 68.8941 26.3652 68.8941 26.2266C68.8941 26.0706 68.8507 25.9319 68.7641 25.8106C68.6774 25.6892 68.5387 25.6286 68.3481 25.6286H64.0581C63.7287 25.6286 63.4514 25.7412 63.2261 25.9666C63.0181 26.1746 62.9141 26.4432 62.9141 26.7726V34.6506C62.9141 35.0666 63.0267 35.3786 63.2521 35.5866ZM75.2752 35.5606C75.2752 35.7166 75.3272 35.8552 75.4312 35.9766C75.5352 36.0979 75.6739 36.1586 75.8472 36.1586C76.0379 36.1586 76.1939 36.0979 76.3152 35.9766C76.4366 35.8552 76.4972 35.7166 76.4972 35.5606L76.4452 32.6486C76.4452 32.0419 76.7486 31.7386 77.3552 31.7386H78.0052C78.5079 31.7386 79.0019 31.8772 79.4872 32.1546C79.9726 32.4319 80.3279 32.8566 80.5532 33.4286L81.5152 35.7426C81.6366 36.0199 81.8272 36.1586 82.0872 36.1586C82.2606 36.1586 82.3992 36.0979 82.5032 35.9766C82.6246 35.8726 82.6852 35.7339 82.6852 35.5606C82.6852 35.4912 82.6679 35.4046 82.6332 35.3006L81.8012 33.2466C81.6106 32.7786 81.3766 32.3972 81.0992 32.1026C80.8219 31.7906 80.5532 31.5999 80.2932 31.5306C80.8999 31.3746 81.4026 31.0366 81.8012 30.5166C82.2172 29.9792 82.4252 29.3206 82.4252 28.5406C82.4252 27.6219 82.1046 26.9112 81.4632 26.4086C80.8219 25.8886 80.0679 25.6286 79.2012 25.6286H76.5752C76.1766 25.6286 75.8559 25.7239 75.6132 25.9146C75.3879 26.0879 75.2752 26.3999 75.2752 26.8506V35.5606ZM78.9932 30.6726H77.3552C76.7486 30.6726 76.4452 30.3692 76.4452 29.7626V27.6306C76.4452 27.0239 76.7486 26.7206 77.3552 26.7206H79.0452C79.5999 26.7206 80.0939 26.8766 80.5272 27.1886C80.9779 27.5006 81.2032 28.0119 81.2032 28.7226C81.2032 29.3639 80.9692 29.8492 80.5012 30.1786C80.0506 30.5079 79.5479 30.6726 78.9932 30.6726ZM91.3973 35.9506C91.6053 36.0892 91.8219 36.1586 92.0473 36.1586C92.2899 36.1412 92.5066 36.0719 92.6973 35.9506C92.9053 35.8466 93.0439 35.6819 93.1133 35.4566L96.5453 26.2526C96.5799 26.1486 96.5973 26.0619 96.5973 25.9926C96.5973 25.8019 96.5279 25.6546 96.3893 25.5506C96.2506 25.4292 96.1033 25.3686 95.9473 25.3686C95.6699 25.3686 95.4793 25.5159 95.3753 25.8106L92.4373 33.9486C92.3333 34.2259 92.2033 34.3646 92.0473 34.3646C91.8913 34.3646 91.7613 34.2259 91.6573 33.9486L88.7193 25.8106C88.6153 25.5159 88.4246 25.3686 88.1473 25.3686C87.9913 25.3686 87.8439 25.4292 87.7053 25.5506C87.5666 25.6546 87.4973 25.8019 87.4973 25.9926C87.4973 26.0619 87.5146 26.1486 87.5493 26.2526L90.9813 35.4566C91.0679 35.6646 91.2066 35.8292 91.3973 35.9506ZM103.127 35.9766C103.249 36.0979 103.396 36.1586 103.569 36.1586C103.76 36.1586 103.916 36.0979 104.037 35.9766C104.159 35.8552 104.219 35.7166 104.219 35.5606V25.9666C104.219 25.7759 104.159 25.6286 104.037 25.5246C103.916 25.4206 103.76 25.3686 103.569 25.3686C103.396 25.3686 103.249 25.4206 103.127 25.5246C103.023 25.6286 102.971 25.7759 102.971 25.9666V35.5606C102.971 35.7166 103.023 35.8552 103.127 35.9766ZM117.381 35.9246C118.005 35.7686 118.507 35.5606 118.889 35.3006C119.079 35.0752 119.175 34.8672 119.175 34.6766C119.175 34.5379 119.114 34.4079 118.993 34.2866C118.871 34.1652 118.741 34.1046 118.603 34.1046C118.551 34.1046 118.499 34.1132 118.447 34.1306C118.395 34.1479 118.343 34.1739 118.291 34.2086C118.048 34.3992 117.684 34.5899 117.199 34.7806C116.731 34.9539 116.237 35.0406 115.717 35.0406C114.503 35.0059 113.533 34.5986 112.805 33.8186C112.077 33.0212 111.713 31.9812 111.713 30.6986C111.713 29.8839 111.877 29.1646 112.207 28.5406C112.536 27.8992 112.995 27.3966 113.585 27.0326C114.191 26.6512 114.876 26.4606 115.639 26.4606C116.505 26.4606 117.277 26.6512 117.953 27.0326C118.091 27.0672 118.221 27.0499 118.343 26.9806C118.464 26.9112 118.551 26.8332 118.603 26.7466C118.637 26.7119 118.655 26.6686 118.655 26.6166V26.4866C118.655 26.2266 118.533 26.0446 118.291 25.9406C117.58 25.5592 116.705 25.3686 115.665 25.3686C114.677 25.3686 113.793 25.6026 113.013 26.0706C112.233 26.5212 111.609 27.1452 111.141 27.9426C110.69 28.7399 110.465 29.6586 110.465 30.6986C110.465 31.7386 110.69 32.6746 111.141 33.5066C111.609 34.3212 112.233 34.9712 113.013 35.4566C113.793 35.9246 114.659 36.1586 115.613 36.1586C116.185 36.1586 116.774 36.0806 117.381 35.9246ZM125.49 35.5866C125.732 35.7946 126.044 35.8986 126.426 35.8986H130.716C130.906 35.8986 131.045 35.8379 131.132 35.7166C131.218 35.5952 131.262 35.4739 131.262 35.3526C131.262 35.2139 131.218 35.0839 131.132 34.9626C131.062 34.8412 130.924 34.7806 130.716 34.7806H127.31C126.703 34.7806 126.4 34.4772 126.4 33.8706V32.1026C126.4 31.4959 126.703 31.1926 127.31 31.1926H130.222C130.586 31.1926 130.768 31.0279 130.768 30.6986C130.768 30.3346 130.586 30.1526 130.222 30.1526H127.31C126.703 30.1526 126.4 29.8492 126.4 29.2426V27.6566C126.4 27.0499 126.703 26.7466 127.31 26.7466H130.586C130.742 26.7466 130.872 26.6946 130.976 26.5906C131.08 26.4866 131.132 26.3652 131.132 26.2266C131.132 26.0706 131.088 25.9319 131.002 25.8106C130.915 25.6892 130.776 25.6286 130.586 25.6286H126.296C125.966 25.6286 125.689 25.7412 125.464 25.9666C125.256 26.1746 125.152 26.4432 125.152 26.7726V34.6506C125.152 35.0666 125.264 35.3786 125.49 35.5866Z" fill="white"/>
</svg>
